<?xml version="1.0" encoding="UTF-8"?>
<svg id="Layer_1" data-name="Layer 1" xmlns="http://www.w3.org/2000/svg" viewBox="0 0 40 40">
  <defs>
    <style>
      .cls-1 {
        fill: #fff;
      }

      .cls-1, .cls-2 {
        stroke-width: 0px;
      }

      .cls-2 {
        fill-rule: evenodd;
      }
    </style>
  </defs>
  <path class="cls-1" d="m34,19.54c0,7.73-6.27,14-14,14s-14-6.27-14-14,6.27-14,14-14,14,6.27,14,14Z"/>
  <path class="cls-2" d="m37.12,4.87c.48-.68.32-1.61-.35-2.09-.68-.48-1.61-.32-2.09.35-.8,1.12-2.62,3.56-4.8,6.48-2.53-2.51-6.02-4.07-9.87-4.07-7.73,0-14,6.27-14,14s6.27,14,14,14,14-6.27,14-14c0-2.77-.8-5.35-2.19-7.52,2.38-3.18,4.43-5.92,5.31-7.15Zm-8.46,6.36c-.2.27-.4.53-.6.8l-.95,1.26c-3.1,4.13-6.34,8.46-8.15,10.98-.35-.31-.8-.82-1.33-1.51-.42-.54-.81-1.1-1.21-1.66-.22-.31-.44-.62-.66-.92-.3-.41-.6-.81-.88-1.15-.26-.31-.6-.68-.98-.93-.69-.46-1.62-.27-2.08.43-.46.69-.27,1.62.43,2.08h0s.12.1.34.36c.21.25.46.58.75.97.18.25.38.53.59.83.42.59.88,1.24,1.33,1.82.65.85,1.44,1.79,2.25,2.34.4.28.99.59,1.7.58.82-.01,1.46-.45,1.88-1.03,1.7-2.39,5.13-6.97,8.44-11.38l.96-1.28s.03-.04.05-.06c.95,1.72,1.49,3.69,1.49,5.79,0,6.63-5.37,12-12,12s-12-5.37-12-12,5.37-12,12-12c3.4,0,6.47,1.41,8.65,3.68Z"/>
</svg>